<svg width="29" height="29" viewBox="0 0 29 29" fill="none" xmlns="http://www.w3.org/2000/svg">
<path fill-rule="evenodd" clip-rule="evenodd" d="M24.8611 20.5278C23.9789 19.6389 21.8422 18.3416 20.8056 17.8189C19.4556 17.1389 19.3445 17.0833 18.2834 17.8716C17.5756 18.3978 17.105 18.8678 16.2767 18.6911C15.4484 18.5144 13.6484 17.5183 12.0722 15.9472C10.4961 14.3761 9.44224 12.5239 9.26502 11.6983C9.0878 10.8728 9.56558 10.4078 10.0867 9.69831C10.8211 8.69831 10.7656 8.53165 10.1378 7.18165C9.64835 6.13165 8.31335 4.01498 7.42113 3.1372C6.46669 2.19443 6.46669 2.36109 5.85169 2.61665C5.351 2.82731 4.87066 3.08338 4.41669 3.38165C3.5278 3.9722 3.03446 4.46276 2.68946 5.19998C2.34446 5.9372 2.18946 7.66554 3.97113 10.9022C5.7528 14.1389 7.0028 15.7939 9.59002 18.3739C12.1772 20.9539 14.1667 22.3411 17.075 23.9722C20.6728 25.9872 22.0528 25.5944 22.7922 25.25C23.5317 24.9055 24.0245 24.4166 24.6161 23.5278C24.9152 23.0745 25.1718 22.5947 25.3828 22.0944C25.6389 21.4816 25.8056 21.4816 24.8611 20.5278Z" stroke="#F5F5F5" stroke-width="1.47126"/>
</svg>
