<svg width="35" height="23" viewBox="0 0 35 23" fill="none" xmlns="http://www.w3.org/2000/svg">
<g clip-path="url(#clip0_29_327)">
<path d="M0.708496 22.5602H34.9999V-0.000247955H0.708496V22.5602Z" fill="white"/>
<path d="M19.9974 22.5604H15.711V13.3953H0.708496V9.16529H15.711V0.000263214H19.9974V9.16529H34.9999V13.3953H19.9974V22.5604Z" fill="#D80027"/>
<path d="M27.0824 7.35681L34.9999 3.016V7.35681H27.0824ZM21.5815 7.35681L34.9999 0.000251293V2.0805L25.376 7.35681H21.5815ZM31.4257 0.000251293L21.5815 5.39778V0.000251293H31.4257Z" fill="#0052B4"/>
<path d="M21.5815 7.35681L34.9999 0.000255585V2.08051L25.376 7.35681H21.5815Z" fill="white"/>
<path d="M21.5815 7.35681L34.9999 0.000255585V2.08051L25.376 7.35681H21.5815Z" fill="#D80027"/>
<path d="M6.75913 7.35699L0.708496 4.03972V7.35699H6.75913ZM14.1269 6.42149V0.000365257H2.41577L14.1269 6.42149Z" fill="#0052B4"/>
<path d="M10.3324 7.35681L0.708496 2.08051V0.000255585L14.1269 7.35681H10.3324Z" fill="#D80027"/>
<path d="M8.626 15.2038L0.708496 19.5446V15.2038H8.626ZM14.1269 15.2038L0.708496 22.5604V20.4801L10.3324 15.2038H14.1269ZM4.28271 22.5604L14.1269 17.1628V22.5604H4.28271Z" fill="#0052B4"/>
<path d="M14.1269 15.2038L0.708496 22.5604V20.4801L10.3324 15.2038H14.1269Z" fill="white"/>
<path d="M14.1269 15.2038L0.708496 22.5604V20.4801L10.3324 15.2038H14.1269Z" fill="#D80027"/>
<path d="M28.9493 15.2037L34.9999 18.5209V15.2037H28.9493ZM21.5815 16.1392V22.5603H33.2927L21.5815 16.1392Z" fill="#0052B4"/>
<path d="M25.376 15.2038L34.9999 20.4801V22.5604L21.5815 15.2038H25.376Z" fill="#D80027"/>
</g>
<defs>
<clipPath id="clip0_29_327">
<rect width="34.2915" height="22.5602" fill="white" transform="matrix(1 0 0 -1 0.708496 22.5602)"/>
</clipPath>
</defs>
</svg>
