<svg width="35" height="23" viewBox="0 0 35 23" fill="none" xmlns="http://www.w3.org/2000/svg">
<g clip-path="url(#clip0_29_325)">
<path d="M0 22.5602H34.2915V1.33514e-05H0V22.5602Z" fill="#36B6CC"/>
<path d="M17.1457 6.77464C19.6708 6.77464 21.7179 8.79475 21.7179 11.2867C21.7179 13.7786 19.6708 15.7987 17.1457 15.7987C14.6205 15.7987 12.5735 13.7786 12.5735 11.2867C12.5735 8.79475 14.6205 6.77464 17.1457 6.77464Z" fill="#FFD400"/>
<path d="M17.1458 5.96986L15.2809 3.2191L14.8063 6.49758L11.9186 4.81546L12.9346 7.96861L9.59235 7.69155L11.8918 10.0993L8.75679 11.2867L11.8851 12.474L9.58567 14.8818L12.9279 14.6047L11.9119 17.7579L14.7996 16.0824L15.2742 19.3608L17.1391 16.6101L19.0041 19.3608L19.4787 16.0824L22.3664 17.7579L21.3504 14.6047L24.6926 14.8818L22.3998 12.4674L25.5282 11.2867L22.3998 10.0993L24.6993 7.69155L21.3571 7.96861L22.3731 4.81546L19.4854 6.49098L19.0108 3.2125C19.0108 3.2191 17.1458 5.96986 17.1458 5.96986ZM17.1458 6.02263C20.0937 6.02263 22.4867 8.38419 22.4867 11.2933C22.4867 14.2023 20.0937 16.5573 17.1458 16.5573C14.198 16.5573 11.8049 14.1957 11.8049 11.2867C11.8049 8.37759 14.198 6.02263 17.1458 6.02263ZM1.52417 20.6933C1.52417 20.9044 1.6846 21.0693 1.90519 21.0693H2.66053C2.87444 21.0693 3.04155 20.911 3.04155 20.6933V19.9479C3.04823 19.7434 2.88112 19.5719 2.66722 19.5719H1.90519C1.69797 19.5719 1.52417 19.7368 1.52417 19.9413V20.6933ZM1.52417 17.6787C1.52417 17.8898 1.6846 18.0547 1.90519 18.0547H2.66053C2.87444 18.0547 3.04155 17.8964 3.04155 17.6787V16.9333C3.04823 16.7288 2.88112 16.5573 2.66722 16.5573H1.90519C1.69797 16.5573 1.52417 16.7222 1.52417 16.9267V17.6787ZM1.52417 14.6707C1.52417 14.8818 1.6846 15.0467 1.90519 15.0467H2.66053C2.87444 15.0467 3.04155 14.8884 3.04155 14.6707V13.9253C3.04823 13.7208 2.88112 13.5493 2.66722 13.5493H1.90519C1.69797 13.5493 1.52417 13.7142 1.52417 13.9187V14.6707ZM1.52417 11.6627C1.52417 11.8738 1.6846 12.0387 1.90519 12.0387H2.66053C2.87444 12.0387 3.04155 11.8804 3.04155 11.6627V10.9173C3.04823 10.7128 2.88112 10.5413 2.66722 10.5413H1.90519C1.69797 10.5413 1.52417 10.7062 1.52417 10.9107V11.6627ZM1.52417 8.64805C1.52417 8.85914 1.6846 9.02405 1.90519 9.02405H2.66053C2.87444 9.02405 3.04155 8.86574 3.04155 8.64805V7.90264C3.04823 7.69815 2.88112 7.52664 2.66722 7.52664H1.90519C1.69797 7.52664 1.52417 7.69155 1.52417 7.89605V8.64805ZM1.52417 5.64003C1.52417 5.85112 1.6846 6.01603 1.90519 6.01603H2.66053C2.87444 6.01603 3.04155 5.85772 3.04155 5.64003V4.89462C3.04823 4.69013 2.88112 4.51862 2.66722 4.51862H1.90519C1.69797 4.51862 1.52417 4.68353 1.52417 4.88803V5.64003ZM1.52417 2.63201C1.52417 2.8431 1.6846 3.00801 1.90519 3.00801H2.66053C2.87444 3.00801 3.04155 2.84969 3.04155 2.63201V1.8866C3.04823 1.68211 2.88112 1.5106 2.66722 1.5106H1.90519C1.69797 1.5106 1.52417 1.67551 1.52417 1.88V2.63201ZM3.04823 4.13602C3.04823 4.34711 3.20866 4.51202 3.42925 4.51202H4.1846C4.3985 4.51202 4.56561 4.3537 4.56561 4.13602V3.39061C4.5723 3.18612 4.40519 3.01461 4.19128 3.01461H3.42925C3.22203 3.01461 3.04823 3.17952 3.04823 3.38401V4.13602ZM3.04823 7.14404C3.04823 7.35513 3.20866 7.52004 3.42925 7.52004H4.1846C4.3985 7.52004 4.56561 7.36173 4.56561 7.14404V6.39863C4.5723 6.19414 4.40519 6.02263 4.19128 6.02263H3.42925C3.22203 6.02263 3.04823 6.18754 3.04823 6.39203V7.14404ZM3.04823 10.1587C3.04823 10.3697 3.20866 10.5347 3.42925 10.5347H4.1846C4.3985 10.5347 4.56561 10.3763 4.56561 10.1587V9.41325C4.5723 9.20876 4.40519 9.03725 4.19128 9.03725H3.42925C3.22203 9.03725 3.04823 9.20216 3.04823 9.40665V10.1587ZM3.04823 13.1667C3.04823 13.3778 3.20866 13.5427 3.42925 13.5427H4.1846C4.3985 13.5427 4.56561 13.3844 4.56561 13.1667V12.4213C4.5723 12.2168 4.40519 12.0453 4.19128 12.0453H3.42925C3.22203 12.0453 3.04823 12.2102 3.04823 12.4147V13.1667ZM3.04823 16.1747C3.04823 16.3858 3.20866 16.5507 3.42925 16.5507H4.1846C4.3985 16.5507 4.56561 16.3924 4.56561 16.1747V15.4293C4.5723 15.2248 4.40519 15.0533 4.19128 15.0533H3.42925C3.22203 15.0533 3.04823 15.2182 3.04823 15.4227V16.1747ZM3.04823 19.1827C3.04823 19.3938 3.20866 19.5587 3.42925 19.5587H4.1846C4.3985 19.5587 4.56561 19.4004 4.56561 19.1827V18.4373C4.5723 18.2328 4.40519 18.0613 4.19128 18.0613H3.42925C3.22203 18.0613 3.04823 18.2262 3.04823 18.4307V19.1827Z" fill="#FFD400"/>
</g>
<defs>
<clipPath id="clip0_29_325">
<rect width="34.2915" height="22.5602" fill="white" transform="matrix(1 0 0 -1 0 22.5602)"/>
</clipPath>
</defs>
</svg>
