<svg width="29" height="29" viewBox="0 0 29 29" fill="none" xmlns="http://www.w3.org/2000/svg">
<path d="M20.332 23.1477V4.04696C20.3299 3.31156 19.7435 2.71594 19.0195 2.71381H4.14453C3.42053 2.71594 2.83413 3.31156 2.83203 4.04696V23.5998C2.83563 24.8255 3.8129 25.8181 5.01953 25.8218H22.957" stroke="#D9D9D9" stroke-width="1.47126" stroke-linejoin="round"/>
<path fill-rule="evenodd" clip-rule="evenodd" d="M22.957 25.8218V25.8218C21.5073 25.8218 20.332 24.628 20.332 23.1555V7.15765H24.2695C24.9944 7.15765 25.582 7.75453 25.582 8.49081V23.1555C25.582 24.628 24.4068 25.8218 22.957 25.8218Z" stroke="#D9D9D9" stroke-width="1.47126" stroke-linejoin="round"/>
<path d="M13.332 7.19072H16.832" stroke="#D9D9D9" stroke-width="1.47126" stroke-linecap="round" stroke-linejoin="round"/>
<path d="M13.332 10.7458H16.832" stroke="#D9D9D9" stroke-width="1.47126" stroke-linecap="round" stroke-linejoin="round"/>
<path d="M6.33203 14.3008H16.832" stroke="#D9D9D9" stroke-width="1.47126" stroke-linecap="round" stroke-linejoin="round"/>
<path d="M6.33203 17.8559H16.832" stroke="#D9D9D9" stroke-width="1.47126" stroke-linecap="round" stroke-linejoin="round"/>
<path d="M6.33203 21.411H16.832" stroke="#D9D9D9" stroke-width="1.47126" stroke-linecap="round" stroke-linejoin="round"/>
<path d="M9.83203 11.6015H6.33203C5.84878 11.6015 5.45703 11.2036 5.45703 10.7127V7.15763C5.45703 6.66677 5.84878 6.26886 6.33203 6.26886H9.83203C10.3153 6.26886 10.707 6.66677 10.707 7.15763V10.7127C10.707 11.2036 10.3153 11.6015 9.83203 11.6015Z" fill="#D9D9D9"/>
</svg>
