<svg width="30" height="29" viewBox="0 0 30 29" fill="none" xmlns="http://www.w3.org/2000/svg">
<path fill-rule="evenodd" clip-rule="evenodd" d="M19.4218 16.8546L26.335 23.8564L24.3292 25.8875L17.4149 18.8869C15.8839 20.0151 14.0387 20.622 12.1453 20.6201C7.18938 20.6201 3.15723 16.537 3.15723 11.5184C3.15723 6.49982 7.18938 2.41669 12.1453 2.41669C17.1012 2.41669 21.1334 6.49982 21.1334 11.5184C21.1352 13.4358 20.5359 15.3043 19.4218 16.8546ZM6.46307 13.9013C7.4151 16.2285 9.65779 17.7457 12.1453 17.7455C15.5398 17.7415 18.2907 14.9559 18.2946 11.5184C18.2949 8.99944 16.7966 6.7284 14.4985 5.76433C12.2004 4.80026 9.55503 5.33304 7.7961 7.11421C6.03716 8.89538 5.51104 11.5742 6.46307 13.9013Z" fill="black"/>
</svg>
